# xmcd
#
# Track frame offsets: 
#        150
#        11707
#        21175
#        24192
#        24894
#        26657
#        43135
#        55172
#        56900
#        58195
#        62512
#        65012
#        66167
#        85205
#        90607
#        96802
#        101587
#        105895
#        117152
#        118355
#        141305
#        148345
#        155270
#        156975
#        184650
#        186634
#        204257
#        208482
#        215680
#        216985
#        220557
#        225112
#        226865
#        241252
#        260222
#        265785
#        270375
#        272945
#        275617
#        277272
#        280300
#        282382
#        283517
#        302607
#        305675
#        320350
#        324780
#        342540
#
# Disc length: 4604 seconds
#
# Revision: 0
# Processed by: cddbd v1.5.2PL0 Copyright (c) Steve Scherf et al.
# Submitted via: ExactAudioCopy v1.0b3
#
DISCID=e611fa30
DTITLE=Chesky - 立体声与环绕声系统建立测试碟---黄金版
DYEAR=1997
DGENRE=stereo
TTITLE0=Introduction
TTITLE1=System Phase
TTITLE2=Phase Test Intro
TTITLE3=Phase Test
TTITLE4=Music Intro
TTITLE5=Under the Table
TTITLE6=Stereo Speaker Setup
TTITLE7=Channel Balance Test Intro
TTITLE8=Channel Balance Test
TTITLE9=The Stepped Stereo Pan Test Intro
TTITLE10=The Stepped Stereo Pan Test
TTITLE11=Music Intro
TTITLE12=Agua de Beber
TTITLE13=Sub Woofer Setup 
TTITLE14=The Subwoofer Level Matching Test Intro
TTITLE15=The Subwoofer Level Matching Test
TTITLE16=Shake, Rattle, and Roll Test Intro
TTITLE17=Shake, Rattle and Roll Test
TTITLE18=Music Intro
TTITLE19=Leather Cats (excerpt)
TTITLE20=Imaging and Soundstaging
TTITLE21=General Image and Resolution Test
TTITLE22=Music Intro
TTITLE23=Piano Concerto #27: Allegro
TTITLE24=Music Intro
TTITLE25=Westminster Abbey Choir
TTITLE26=Room Acoustics and System Response
TTITLE27=The Clap Test Intro
TTITLE28=The Clap Test
TTITLE29=The Wandering Audiophile Intro
TTITLE30=The Wandering Audiophile
TTITLE31=Music Intro
TTITLE32=Pau Brasil
TTITLE33=Aires del Poliogono
TTITLE34=Home Theater System Check
TTITLE35=Dolby Pro Logic Circular Pan Test Intro
TTITLE36=Dolby Pro Logic Circular Pan Test
TTITLE37=Dolby Pro Logic Pan Center to Surround Pan Intro
TTITLE38=Dolby Pro Logic Pan Center to Surround Pan Test
TTITLE39=Dolby Pro Logic Channel Identification Intro
TTITLE40=Dolby Pro Logic Channel Identification Test
TTITLE41=Theater Without Pictures Intro
TTITLE42=The Soldier's Tale Joseph Laments His Fate
TTITLE43=The Music Tests
TTITLE44=Theme from I Love Lucy 
TTITLE45=Music Intro
TTITLE46=Gadamaylin
TTITLE47=Final Announcement
EXTD=
EXTT0=
EXTT1=
EXTT2=
EXTT3=
EXTT4=
EXTT5=
EXTT6=
EXTT7=
EXTT8=
EXTT9=
EXTT10=
EXTT11=
EXTT12=
EXTT13=
EXTT14=
EXTT15=
EXTT16=
EXTT17=
EXTT18=
EXTT19=
EXTT20=
EXTT21=
EXTT22=
EXTT23=
EXTT24=
EXTT25=
EXTT26=
EXTT27=
EXTT28=
EXTT29=
EXTT30=
EXTT31=
EXTT32=
EXTT33=
EXTT34=
EXTT35=
EXTT36=
EXTT37=
EXTT38=
EXTT39=
EXTT40=
EXTT41=
EXTT42=
EXTT43=
EXTT44=
EXTT45=
EXTT46=
EXTT47=
PLAYORDER=
